<svg version="1.2" xmlns="http://www.w3.org/2000/svg" viewBox="0 0 1637 260" width="1637" height="260">
	<title>Delhivery_Logo_(2019)-svg</title>
	<style>
		.s0 { fill: #000000 } 
		.s1 { fill: #ef4136 } 
	</style>
	<g id="#231f20ff">
		<path id="Layer" fill-rule="evenodd" class="s0" d="m0.5 0.5c22.2 0 44.4-0.1 66.6 0.1 5.9 0.1 11.8-0.1 17.7 0.2 22.3 0 44.6-0.1 67 0 0.9-0.2 1.5 0.5 2.1 1.1 8.9 8.9 17.8 17.7 26.7 26.6 0.9 1 2.3 1.9 2.1 3.4q0 96.7 0 193.3c-0.2 1.8 0.6 4-0.9 5.3-9.2 9.2-18.3 18.5-27.5 27.7-0.6 0.5-1.2 1.3-2 1.3-24.4 0.2-48.7 0.3-73.1 0.2-8.4-0.2-16.9 0-25.3 0-17.8-0.2-35.6-0.2-53.3-0.3 15.5-0.1 31.1 0 46.7 0 4.3-0.1 8.6 0.1 12.9-0.2 0-16.2 0-32.4 0-48.7 0-3.5 0.1-7.1-0.1-10.7q-29.8-0.1-59.6 0c0-66.4 0-132.9 0-199.3zm59.9 59.9c-0.1 24.2 0 48.3-0.1 72.5 0.1 22.3 0 44.6 0.1 66.8 12 0.5 24.1-0.1 36.1 0.3 8.8 0 17.5-0.2 26.3-0.1 0-46.4 0.1-92.9 0-139.3-9.8 0-19.6 0.1-29.4-0.1-11 0-22 0-33-0.1z"/>
		<path id="Layer" class="s0" d="m256.6 0h116.5c0.3 6.3-0.1 12.5 0 18.8 0.1 13.7-0.2 27.4-0.2 41.2-9.3 0-18.6 0.1-28-0.1-10.1-0.1-20.2 0.1-30.4-0.2-11.3 0-22.6 0.1-33.9 0.2q-0.1 20.3 0 40.5c21.8 0.1 43.6 0 65.3 0.1q0.1 29.9 0 59.8c-21.7 0.1-43.5 0-65.3 0 0 13-0.1 25.9 0 38.8q15.4 0 30.9 0c10.5 0.3 20.9 0.1 31.4 0.2 10.1 0.2 20.2 0 30.3 0.1 0.1 6.3-0.2 12.5-0.1 18.8 0.1 13.6-0.2 27.3-0.2 41-7.6 0.2-15.2-0.2-22.9-0.1-7.9 0-15.9 0.1-23.8-0.1q-37 0-74.1 0c-1 0.1-1.9-0.4-2.6-1.2-9.1-9.1-18.2-18.3-27.4-27.4-0.7-0.7-1.4-1.5-1.3-2.6q0-98.2 0-196.4c-0.2-1.5 1.1-2.5 2-3.4 8.2-8 16.2-16.3 24.3-24.4 1.1-1.1 2.2-2.4 3.6-3.2 2-0.3 4-0.1 5.9-0.4zm884.9 0h77.3c13.1 0.3 26.2 0 39.2 0.3-0.2 12.1 0.1 24.2-0.2 36.2 0 7.8 0.1 15.6 0 23.5-17.6 0.1-35.2-0.2-52.8-0.1-13.2-0.4-26.4 0-39.6 0q0 20.3 0 40.5c21.8 0.1 43.6 0 65.4 0.1q0.1 29.9 0 59.8c-21.8 0.1-43.6 0-65.4 0 0 13-0.1 25.9 0.1 38.8 12.8 0.1 25.6-0.1 38.4 0.2 9.9 0 19.7-0.2 29.5 0.1 8.2 0 16.4-0.1 24.7 0-0.4 11.8 0.1 23.7-0.3 35.5 0 8.1 0.1 16.2 0 24.3-11 0.1-22-0.2-33.1-0.1-29.2-0.2-58.5-0.1-87.7-0.1-1.1 0.1-2-0.4-2.6-1.2-8.7-8.7-17.4-17.4-26.2-26.1-1.1-1.2-2.9-2.4-2.6-4.4 0-62.7 0-125.5 0-188.2 0.1-3-0.3-6 0.2-9 1.8-2.3 4.2-4.2 6.2-6.4q8.9-9.1 17.9-18.1c1.9-1.7 3.5-3.9 5.7-5.2 1.9-0.3 3.9-0.1 5.9-0.4zm186.4 0h111.2c0 19.9 0 39.8 0 59.7-27 0.1-54.1 0-81.1 0.1-0.1 66 0 132 0 198-20 0.1-39.9 0.1-59.8 0-0.1-75.5 0-150.9-0.1-226.4-0.2-2.1 1.8-3.3 3-4.7 9-8.8 17.8-17.9 26.8-26.7zm141.4 0h59.7q0 50 0 100c-0.2 1.6 1 2.9 2 4.1 7.4 8.9 14.7 17.9 22.2 26.8 6.8-8.1 13.5-16.3 20.3-24.5 1.3-1.6 2.9-3.1 3.8-5 0.3-2.2 0.1-4.4 0.1-6.5 0-25.6-0.1-51.1 0-76.6-0.1-6.1 0-12.2-0.1-18.3h0.3q-0.1 29.8 0 59.5c19.8 0.2 39.6 0.1 59.4 0.1v63.8c-16.9 20.6-33.9 41.1-50.9 61.6-1.1 1.6-3.1 3-3 5.2 0 22.9 0.1 45.7 0 68.6-19.9 0.1-39.8 0.1-59.8 0-0.1-22.8 0-45.7 0-68.6 0.1-1.9-1.4-3.1-2.5-4.5-16.4-19.8-32.7-39.6-49.1-59.4-1-1.4-2.6-2.6-2.4-4.5q0-60.9 0-121.8zm-1062.5 0.8c19.9 0 39.8-0.1 59.7 0 0 66.2 0 132.4 0 198.6 27.1 0 54.1-0.1 81.2 0q0 29.9 0 59.8c-36.5 0.1-73 0-109.5 0.1-0.8-0.1-1.8 0-2.3-0.7-9.4-9.4-18.8-18.8-28.2-28.2-1.4-1.1-0.8-3.1-0.9-4.6 0-75 0-150 0-225zm169.9 0q29.9-0.1 59.8 0c0 33.2 0 66.4 0 99.6 17.8 0.1 35.6 0.1 53.4 0 0-33 0-66 0-98.9 19.9-0.2 39.9-0.1 59.8-0.1 0.1 55.9 0 111.7 0 167.5 0 30.2 0.1 60.3 0 90.4-19.9 0.1-39.9 0.1-59.8 0 0-33 0-66 0-99-17.8 0-35.6 0-53.4 0 0 33 0.1 66 0 99q-29.9 0.1-59.8 0c0-86.1 0-172.3 0-258.5zm213.3 0.6q29.8-0.1 59.6 0c0.1 54.7 0 109.3 0 164 0 31.3 0.1 62.6 0 93.9q-29.8 0.1-59.6 0c-0.1-57-0.1-114-0.1-171 0-29 0-57.9 0.1-86.9zm102.4 0q29.8-0.1 59.6 0c0.1 43 0 86 0.1 129 0 11.1-0.2 22.2 0.1 33.3 1.8 2.7 4.1 5 6 7.5 6.1 7.3 11.9 14.6 18.1 21.7 7.6-9.1 15.1-18.4 22.8-27.5 0.6-0.8 1.3-1.6 1.2-2.6 0.1-53.8 0-107.6 0.1-161.4q29.9 0 59.7 0c0.2 57.4 0.1 114.7 0.1 172.1-0.1 3.9 0.1 7.8-0.1 11.7-1.8 2.7-4.2 5.1-6.1 7.7q-25.7 31.1-51.4 62.2c-1.1 1.2-2 2.6-3.1 3.6-4.5 0.4-9.1 0.1-13.6 0.2-11-0.1-21.9 0-32.9-0.1-19.4-23.4-38.7-46.9-58.1-70.3-1.1-1.5-2.9-2.8-2.6-4.8 0.1-60.8 0-121.5 0.1-182.3z"/>
	</g>
	<g id="#ef4136ff">
		<path id="Layer" class="s1" d="m1577.6 0h59.4v59.6c-19.8 0-39.6 0.1-59.4-0.1q-0.1-29.7 0-59.5z"/>
		<path id="Layer" class="s1" d="m0.5 199.8q29.8-0.1 59.6 0c0.2 3.6 0.1 7.2 0.1 10.7 0 16.3 0 32.5 0 48.7-4.3 0.3-8.6 0.1-12.9 0.2-15.6 0-31.2-0.1-46.7 0-0.1-19.9 0-39.7-0.1-59.6z"/>
	</g>
</svg>