<svg version="1.2" xmlns="http://www.w3.org/2000/svg" viewBox="0 0 1087 1546" width="1087" height="1546">
	<title>Delhivery_Logo_(2019)-svg</title>
	<style>
		.s0 { fill: #231f20 } 
		.s1 { fill: #ef4136 } 
	</style>
	<g id="#231f20ff">
		<path id="Layer" fill-rule="evenodd" class="s0" d="m1.2 1.2c132.1-0.1 264.2-0.8 396.2 0.6 35.2 0.2 70.5-0.6 105.7 0.7 132.9 0.1 265.9-0.1 398.9 0.1 5.4-0.9 9.3 3.1 13 6.5 52.7 53 105.5 106 158.5 158.6 5.5 6 14.1 11.3 12.6 20.6 0 383.9-0.1 767.8 0 1151.7-1.2 10.3 3.7 23.4-5.1 31.3-55.2 54.5-109.4 110-164.1 165-3.6 2.9-6.8 7.6-11.9 7.6-145 1-290.1 2-435.1 1.6-50.3-1.6-100.7-0.3-151-0.6-105.8-0.8-211.6-1-317.5-1.4 92.7-0.6 185.5-0.1 278.3-0.3 25.6-0.3 51.3 1 76.9-0.8 0.2-96.7 0-193.4 0.1-290.1-0.2-21.3 0.6-42.7-0.7-64-118.2-0.3-236.5-0.3-354.7-0.1-0.5-395.6-0.3-791.4-0.1-1187zm356.4 356.6c-0.4 144-0.1 288-0.2 432.1 0.3 132.7-0.4 265.3 0.4 398 71.5 2.5 143.2-0.5 214.8 1.7 52.3-0.3 104.7-1 157-0.8 0-276.6 0.5-553.1-0.2-829.7-58.3-0.1-116.6 0.8-174.9-0.7-65.6 0-131.3 0.3-196.9-0.6z"/>
	</g>
	<g id="#ef4136ff">
		<path id="Layer" class="s1" d="m1.3 1188.2c118.2-0.2 236.5-0.2 354.7 0.1 1.3 21.3 0.5 42.7 0.7 64-0.1 96.7 0.1 193.4-0.1 290.1-25.6 1.8-51.3 0.5-76.9 0.8-92.8 0.2-185.6-0.3-278.3 0.3-0.2-118.4 0.1-236.9-0.1-355.3z"/>
	</g>
</svg>